<svg width="253" height="291" viewBox="0 0 253 291" fill="none" xmlns="http://www.w3.org/2000/svg">
<g clip-path="url(#clip0_515_1616)">
<path d="M151.086 142.211C145.999 153.386 144.928 166.093 145.375 178.349C145.821 192.498 148.141 206.917 154.923 219.444C161.706 231.881 173.396 242.155 187.318 244.408C200.704 246.57 214.626 241.073 224.532 231.701C234.438 222.328 240.595 209.441 243.987 196.193C249.073 176.366 247.913 154.016 236.58 137.074C215.965 106.343 166.882 107.784 151.086 142.211Z" fill="white"/>
<path d="M239.346 196.463C236.401 208.089 230.957 219.354 222.301 227.645C213.644 235.846 201.418 240.713 189.638 238.82C178.483 237.018 168.845 229.267 162.777 219.534C168.577 226.023 176.163 230.799 184.641 232.151C196.421 234.044 208.647 229.267 217.303 220.976C225.96 212.775 231.403 201.51 234.348 189.885C238.632 173.122 237.829 154.287 228.905 139.597C230.333 141.129 231.671 142.841 232.921 144.734C242.826 159.424 243.808 179.07 239.346 196.463Z" fill="#E6E6E6"/>
<path d="M193.208 246.931C191.066 246.931 189.014 246.751 186.872 246.39C173.307 244.137 160.635 234.404 153.049 220.345C146.981 209.26 143.768 195.472 143.233 178.349C142.697 162.938 144.572 151.133 149.123 141.219C156.53 125.088 171.79 114.634 190.085 113.102C209.361 111.57 227.745 120.221 238.186 135.722C248.895 151.673 251.751 173.843 245.95 196.553C242.113 211.694 235.152 224.311 225.871 233.052C216.59 241.974 204.72 246.931 193.208 246.931ZM194.636 117.247C193.297 117.247 191.87 117.337 190.531 117.427C173.754 118.779 159.743 128.422 152.96 143.112C148.677 152.394 146.981 163.569 147.427 178.349C147.963 194.841 150.997 207.909 156.708 218.453C163.758 231.43 175.271 240.352 187.586 242.335C199.634 244.317 212.931 239.811 223.104 230.168C231.761 221.967 238.275 209.981 241.934 195.652C247.467 174.113 244.79 153.205 234.795 138.245C225.96 124.997 210.878 117.247 194.636 117.247Z" fill="#333333"/>
<path d="M27.2188 137.795C20.0794 149.961 16.956 164.2 15.6174 178.349C13.8325 197.004 16.0636 218.092 29.896 230.619C45.5133 244.678 71.6611 241.704 87.1891 227.465C102.717 213.226 108.696 190.786 107.625 169.607C106.912 155.278 103.074 140.769 94.0607 129.684C73.6244 104.63 42.4791 111.93 27.2188 137.795Z" fill="white"/>
<path d="M88.1707 223.319C87.903 223.59 87.546 223.86 87.2783 224.221C72.7319 237.468 48.1905 240.352 33.5548 227.104C20.5256 215.389 18.473 195.652 20.1686 178.079C21.418 164.831 24.3629 151.493 31.0561 140.048C34.9827 133.379 40.0695 128.062 45.6917 124.277C42.479 127.341 39.6233 131.036 37.1245 135.181C30.4314 146.627 27.4864 159.964 26.237 173.212C24.6307 190.786 26.594 210.522 39.6233 222.238C52.6525 233.954 73.4458 233.052 88.1707 223.319Z" fill="#E6E6E6"/>
<path d="M55.5083 241.974C45.5132 241.974 35.7859 238.73 28.5573 232.151C13.297 218.363 11.9584 195.202 13.5647 178.079C15.1711 161.136 19.0085 147.528 25.4339 136.623C33.8226 122.384 47.2088 113.192 61.309 112.11C74.1598 111.119 86.3859 116.887 95.7563 128.242C104.056 138.516 108.964 152.755 109.767 169.427C111.017 193.85 103.342 215.479 88.6169 228.907C79.2466 237.648 67.1097 241.974 55.5083 241.974ZM29.0035 138.876C22.9351 149.24 19.187 162.217 17.6698 178.529C16.1527 194.661 17.3129 216.47 31.2346 228.997C46.6734 242.876 71.8395 238.64 85.7612 225.933C99.5044 213.406 106.733 192.949 105.484 169.788C104.948 158.793 102.182 143.112 92.3651 131.036C84.0656 120.762 73.0889 115.535 61.5767 116.436C48.9044 117.427 36.6783 125.809 29.0035 138.876Z" fill="#333333"/>
<path d="M70.8579 188.352C73.089 189.704 76.1232 189.614 78.3542 188.172C83.8872 184.748 79.6036 177.087 74.1599 176.997C68.0022 176.907 65.5034 185.108 70.8579 188.352Z" fill="#333333"/>
<path d="M168.31 187.181C170.005 188.262 172.325 188.172 174.11 187.091C178.394 184.477 175.092 178.529 170.808 178.439C166.168 178.349 164.205 184.658 168.31 187.181Z" fill="#333333"/>
<path d="M102.181 0C103.609 5.04676 104.769 10.1836 105.662 15.3205C107.268 24.0622 102.36 32.7138 94.0605 35.778C82.2806 40.1939 70.6791 45.1505 58.5423 48.8455C46.5839 52.4503 34.3578 56.2354 24.0058 63.2648C13.6538 70.2942 5.35428 81.3791 4.46187 93.996C-4.4623 79.6668 0.802959 60.3809 12.6721 48.3949C24.5412 36.4088 40.8724 30.3707 56.579 24.603C72.3747 18.8352 90.7585 12.3465 102.181 0Z" fill="#868686"/>
<path d="M150.818 0C148.855 7.02942 147.338 14.149 146.356 21.3586C145.553 26.856 148.855 32.1731 154.031 33.9755C167.596 38.7519 180.625 44.6098 194.368 48.8455C206.327 52.4503 218.553 56.2354 228.905 63.2648C239.257 70.2942 247.735 81.3791 248.538 93.996C257.462 79.6668 252.197 60.3809 240.417 48.3949C228.548 36.4088 212.217 30.3707 196.51 24.603C180.714 18.8352 162.331 12.3465 150.818 0Z" fill="#868686"/>
<path d="M171.076 291H74.4276C73.2674 291 72.375 290.099 72.375 288.927C72.375 287.756 73.2674 286.854 74.4276 286.854H171.076C172.236 286.854 173.129 287.756 173.129 288.927C173.129 290.099 172.236 291 171.076 291Z" fill="#E6E6E6"/>
</g>
<defs>
<clipPath id="clip0_515_1616">
<rect width="253" height="291" fill="white"/>
</clipPath>
</defs>
</svg>
